<?xml version="1.0" encoding="UTF-8" standalone="no"?>
<!-- Created with Inkscape (http://www.inkscape.org/) -->

<svg
   width="8.5463915"
   height="12.57395"
   viewBox="0 0 2.2612327 3.3268575"
   version="1.1"
   id="svg1"
   inkscape:export-filename="playerAsteroid1.png"
   inkscape:export-xdpi="96"
   inkscape:export-ydpi="96"
   xmlns:inkscape="http://www.inkscape.org/namespaces/inkscape"
   xmlns:sodipodi="http://sodipodi.sourceforge.net/DTD/sodipodi-0.dtd"
   xmlns="http://www.w3.org/2000/svg"
   xmlns:svg="http://www.w3.org/2000/svg">
  <sodipodi:namedview
     id="namedview1"
     pagecolor="#505050"
     bordercolor="#eeeeee"
     borderopacity="1"
     inkscape:showpageshadow="0"
     inkscape:pageopacity="0"
     inkscape:pagecheckerboard="0"
     inkscape:deskcolor="#505050"
     inkscape:document-units="mm" />
  <defs
     id="defs1" />
  <g
     inkscape:label="Calque 1"
     inkscape:groupmode="layer"
     id="layer1"
     transform="translate(-0.26482767,-0.1670574)">
    <path
       style="fill:#2f2f2f;fill-opacity:1;stroke:#000000;stroke-width:0.01;stroke-linecap:round;stroke-linejoin:round;stroke-miterlimit:200;stroke-dasharray:none;stroke-opacity:1;paint-order:markers stroke fill"
       d="m 0.4687739,0.31514214 c 0.005166,-0.0113035 0.0232796,-0.0193403 0.0315142,-0.027575 0.005945,-0.005945 0.009812,-0.0137512 0.015757,-0.0196964 0.0634199,-0.0634199 0.15905485,-0.0571852 0.24029587,-0.0748463 0.0199194,-0.00433 0.0395328,-0.0100052 0.0590891,-0.0157571 0.002817,-8.2841e-4 0.004957,-0.003647 0.007879,-0.003939 0.0113583,-0.001136 0.0949982,-0.003484 0.10242121,0.003939 0.002936,0.002936 0.001527,0.008439 0.003939,0.0118178 0.004317,0.006044 0.0114975,0.009672 0.015757,0.0157571 0.005051,0.007216 0.006932,0.0163066 0.0118179,0.0236357 0.006361,0.009542 0.0255471,0.0307247 0.0354535,0.0393928 0.0282099,0.0246838 0.0610034,0.0359655 0.0945426,0.0512106 0.019603,0.00891 0.039886,0.0179731 0.059089,0.0275749 0.00685,0.003424 0.012587,0.008974 0.019696,0.0118179 0.00244,9.7631e-4 0.00529,-4.7096e-4 0.00788,0 0.011911,0.002167 0.023469,0.006166 0.035454,0.007878 0.026994,0.003856 0.050003,-0.007476 0.074846,-0.015757 0.00784,-0.002614 0.025649,-0.00461 0.035454,-0.007879 0.011142,-0.003714 0.02012,-0.0129087 0.031514,-0.015757 0.0051,-0.001273 0.010531,5.2387e-4 0.015757,0 0.013901,0.001389 0.026105,-0.006218 0.039393,-0.007879 0.016496,-0.002061 0.034567,0 0.051211,0 0.042448,0 0.1138284,0.0255482 0.1536318,0.0393927 0.013358,0.004646 0.025795,0.0118719 0.039393,0.015757 0.078401,0.0224004 0.1535652,0.1220334 0.082725,0.22847802 0.00547,0.001058 -0.049906,0.11386839 -0.035454,0.14575368 0.035593,0.0785275 0.043551,0.20486098 0.042908,0.20773138 -0.01265,0.056488 0.1278287,0.22237018 0.1264787,0.22164998 l 0.1915114,0.073994 c -0.00793,0.00952 0.1024322,0.080837 0.096059,0.091459 -0.017909,0.029849 -0.015542,0.057368 -0.019696,0.090603 -0.00165,0.013179 -0.0096,0.026071 -0.011818,0.039393 -0.00595,0.03571 0.004,0.074327 0,0.1102997 -0.0012,0.010762 -0.00654,0.02077 -0.00788,0.031514 -6.509e-4,0.00521 0.0011,0.010621 0,0.015757 -0.0077,0.03593 -0.024893,0.072528 -0.039393,0.1063605 -0.00164,0.00382 -0.00164,0.00836 -0.00394,0.011818 -0.00149,0.00224 -0.028981,0.022791 -0.031514,0.023636 -0.00498,0.00166 -0.010523,-4.365e-4 -0.015757,0 -0.01055,8.785e-4 -0.021072,0.0022 -0.031514,0.00394 -0.033323,0.00555 -0.072362,0.015118 -0.1024212,0.031514 -0.00489,0.00267 -0.00718,0.00873 -0.011818,0.011818 -0.00345,0.0023 -0.0081,0.00208 -0.011818,0.00394 -0.00871,0.00436 -0.00122,0.00244 -0.00394,0.00788 -0.00655,0.013107 -0.01695,0.026022 -0.023636,0.039393 -0.0081,0.016195 -0.00118,0.00706 -0.00394,0.023636 -0.0045,0.026979 -0.015175,0.051654 -0.019696,0.078786 -8.625e-4,0.00518 0.0011,0.010621 0,0.015757 -0.025761,0.1202163 1.319e-4,0.00164 -0.019696,0.051211 -0.00452,0.011294 -9.022e-4,0.07585 0,0.086664 0.00289,0.034635 0.00288,0.00566 0.011818,0.035454 0.00229,0.00765 0.00114,0.016157 0.00394,0.023636 0.00526,0.014018 0.023763,0.018222 0.035454,0.027575 0.012973,7.726e-4 0.00981,0.013751 0.015757,0.019696 0.010505,0.010505 0.00657,-0.00394 0.011818,0.011818 0.00657,0.019723 0.017142,0.042589 0.019696,0.063028 0.00242,0.019387 -0.00258,0.039725 0,0.059089 0.0016,0.012 0.00565,0.023555 0.00788,0.035454 0.00411,0.021923 0.00754,0.066454 0.011818,0.082725 0.00195,0.0074 0.00768,0.013256 0.011818,0.019696 0.00768,0.011948 0.015282,0.023967 0.023636,0.035454 0.00219,0.003 0.0067,0.00435 0.00788,0.00788 0.00886,0.026592 0.015921,0.099373 0,0.1221176 -0.00532,0.00761 -0.013131,0.013131 -0.019696,0.019696 -0.00788,0.010504 -0.016624,0.020413 -0.023636,0.031514 -0.017578,0.022516 -0.024617,0.050835 -0.039393,0.074846 -0.00441,0.00716 -0.011301,0.012568 -0.015757,0.019696 -0.00256,0.0041 -0.00371,0.015528 -0.00788,0.019696 -0.00414,0.00414 -0.025215,0.00867 -0.031514,0.011819 -0.00947,0.00473 -0.018497,0.010311 -0.027575,0.015756 -0.00406,0.00243 -0.00719,0.00689 -0.011818,0.00788 -0.014182,0.00304 -0.028857,0.00303 -0.043332,0.00394 -0.00655,3.969e-4 -0.013362,-0.00172 -0.019696,0 -0.0085,0.00233 -0.015505,0.00843 -0.023636,0.011819 -0.021155,0.00881 -0.04447,0.012946 -0.066968,0.015756 -0.042194,0.00527 -0.084005,0.00188 -0.1260569,0.00788 -0.014533,0.00206 -0.028786,0.0059 -0.043332,0.00788 -0.00769,0.00106 -0.07329,0.00621 -0.082725,0.00788 -0.021917,0.00387 -0.026673,0.010102 -0.047271,0.011819 -0.00739,6.085e-4 -0.053462,-7.144e-4 -0.059089,0 -0.010744,0.00135 -0.020781,0.00645 -0.031514,0.00788 -0.021032,0.0028 -0.045596,0 -0.066968,0 H 1.0478534 c -0.042501,0 -0.0876735,-0.00423 -0.12999613,0 -0.0168061,0.00169 -0.037948,0.00885 -0.0551499,0.00394 -0.0497873,-0.014224 0.0178464,-0.00259 -0.0512106,-0.015756 C 0.74726497,2.9225452 0.68244337,2.9155232 0.6224115,2.8875082 0.5937026,2.8741092 0.6117409,2.8787382 0.586958,2.8638732 0.56115,2.8483902 0.5668113,2.8568032 0.5436259,2.8402382 c -0.003022,-0.00217 -0.004788,-0.00582 -0.007879,-0.00788 -0.001093,-7.409e-4 -0.003011,9.26e-4 -0.003939,0 -0.003828,-0.00383 -0.003174,-0.010398 -0.003939,-0.015756 -0.005321,-0.037243 -0.006957,-0.052685 0.0118179,-0.082725 0.002508,-0.00401 0.006381,-0.00733 0.007879,-0.011819 0.001246,-0.00374 -7.7259e-4,-0.00796 0,-0.011819 0.003439,-0.017193 0.0107333,-0.038404 0.015757,-0.05515 0.006435,-0.021451 0.0210092,-0.04169 0.027575,-0.063028 0.001545,-0.00502 -7.4348e-4,-0.010557 0,-0.015757 0.003287,-0.023012 0.0132921,-0.07275 0.0275749,-0.090603 0.0178229,-0.022279 0.004882,-0.00268 0.0275749,-0.019696 0.0126495,-0.00949 0.0242729,-0.020334 0.0354535,-0.031514 0.005945,-0.00595 0.0102203,-0.013369 0.015757,-0.019696 0.0167206,-0.019109 0.043764,-0.040257 0.0551499,-0.063028 0.008701,-0.00512 0.001453,-0.01348 0.003939,-0.019696 0.001759,-0.0044 0.005761,-0.00758 0.007879,-0.011818 C 0.773157,2.3023912 0.7818883,2.2737412 0.7760439,2.2532852 0.7721449,2.2396332 0.7671599,2.2344772 0.7642263,2.2217662 0.7581223,2.1953152 0.7628203,2.1872982 0.7484692,2.1705552 0.7367568,2.1568912 0.7175065,2.1393172 0.7011979,2.1311622 c -0.004842,-0.00242 -0.0112524,-9.361e-4 -0.0157571,-0.00394 -0.007313,-0.00488 -0.009793,-0.017672 -0.015757,-0.023636 -0.002077,-0.00208 -0.00625,-0.0015 -0.007878,-0.00394 -5.9531e-4,-8.917e-4 -0.007252,-0.031697 -0.007879,-0.035454 -0.003869,-0.023214 0,-0.05151 0,-0.074846 0,-0.02597 -0.004622,-0.057302 0,-0.082725 0.008026,-0.044144 0.005373,-0.00565 0.015757,-0.039393 0.005096,-0.016563 0.0241467,-0.08856 0.0196964,-0.1063605 -0.005747,-0.022987 -0.026056,-0.062719 -0.0393929,-0.082725 -0.0185985,-0.027898 -0.0467886,-0.051288 -0.0512106,-0.086664 -0.001955,-0.015635 0,-0.031514 0,-0.047271 V 1.4181509 c 0,-0.044099 0.001117,-0.094757 -0.0118179,-0.1378747 -0.00635,-0.021168 -0.005743,-0.010284 -0.015757,-0.023636 -0.005163,-0.00688 -0.003906,-0.011752 -0.007879,-0.019696 C 0.5457417,1.2017822 0.5236823,1.1696462 0.5002944,1.1384622 0.4732265,1.1023722 0.449768,1.0604952 0.4136303,1.0321018 0.3909621,1.0142908 0.3630338,1.0043588 0.338784,0.98876974 0.3120354,0.97157424 0.2906563,0.94692204 0.2718163,0.92180204 c -0.00199,-0.002653 0,-0.0216755 0,-0.0236358 0,-0.0194897 -0.004341,-0.0670966 0,-0.0827248 0.004569,-0.0164476 0.014015,-0.0311743 0.0196964,-0.0472713 0.002228,-0.006314 6.8791e-4,-0.0138435 0.003939,-0.0196964 0.0101841,-0.0183314 0.0259524,-0.0188852 0.0433321,-0.027575 0.0318092,-0.0159046 0.04646,-0.0353949 0.0590892,-0.0669677 0.0100293,-0.0250732 0.022002,-0.0567172 0.0275749,-0.0827248 0.001376,-0.00642 -9.2869e-4,-0.0131969 0,-0.0196964 0.001712,-0.0119843 0.005504,-0.0235826 0.007879,-0.0354535 0.00303,-0.0151511 -0.00303,-0.0321203 0,-0.0472713 0.002199,-0.0109879 0.0240866,-0.029379 0.0275749,-0.043332 0.003521,-0.0140835 7.163e-5,-0.0198395 0.007879,-0.0354535 0.001722,-0.003447 0.001643,-0.0305279 0,-0.0354535 -0.001857,-0.005571 -0.006022,-0.0101862 -0.007879,-0.015757 -0.002627,-0.007879 0.004794,-0.015925 0.007879,-0.0236357 z M 1.5441961,1.1542054 1.5048037,1.5048037"
       id="path1"
       sodipodi:nodetypes="csccscscsssccscscccccssccssccsccccccsccccccccccccsccccccccccccccccccccccccsccccccssccccccccccccssccccccccccscccscsccsccsssccccscscccssccccsccccccc" />
    <path
       style="fill:#1c1c1c;fill-opacity:1;stroke:#484848;stroke-width:0.01;stroke-linecap:round;stroke-linejoin:round;stroke-miterlimit:200;stroke-dasharray:none;stroke-opacity:1;paint-order:markers stroke fill"
       id="path2"
       sodipodi:type="arc"
       sodipodi:cx="0.85088372"
       sodipodi:cy="0.76028037"
       sodipodi:rx="0.11029974"
       sodipodi:ry="0.185146"
       sodipodi:start="3.1086609"
       sodipodi:end="3.1072641"
       sodipodi:open="true"
       sodipodi:arc-type="arc"
       d="M 0.74064378,0.76637645 A 0.11029974,0.185146 0 0 1 0.84721352,0.57523689 0.11029974,0.185146 0 0 1 0.9611211,0.75405506 0.11029974,0.185146 0 0 1 0.85463092,0.9453195 0.11029974,0.185146 0 0 1 0.74064896,0.76663492" />
    <path
       style="fill:#1c1c1c;fill-opacity:1;stroke:#484848;stroke-width:0.01;stroke-linecap:round;stroke-linejoin:round;stroke-miterlimit:200;stroke-dasharray:none;stroke-opacity:1;paint-order:markers stroke fill"
       id="path4"
       sodipodi:type="arc"
       sodipodi:cx="1.3905646"
       sodipodi:cy="2.4620478"
       sodipodi:rx="0.13787468"
       sodipodi:ry="0.22453876"
       sodipodi:start="3.1086609"
       sodipodi:end="3.1072641"
       sodipodi:open="true"
       sodipodi:arc-type="arc"
       d="M 1.2527646,2.4694409 A 0.13787468,0.22453876 0 0 1 1.3859768,2.2376334 0.13787468,0.22453876 0 0 1 1.5283613,2.454498 0.13787468,0.22453876 0 0 1 1.3952486,2.686457 0.13787468,0.22453876 0 0 1 1.2527711,2.4697544" />
    <path
       style="fill:#1c1c1c;fill-opacity:1;stroke:#484848;stroke-width:0.01;stroke-linecap:round;stroke-linejoin:round;stroke-miterlimit:200;stroke-dasharray:none;stroke-opacity:1;paint-order:markers stroke fill"
       id="path5"
       sodipodi:type="arc"
       sodipodi:cx="1.1069367"
       sodipodi:cy="1.3885951"
       sodipodi:rx="0.2875672"
       sodipodi:ry="0.22650841"
       sodipodi:start="3.1086609"
       sodipodi:end="3.1072641"
       sodipodi:open="true"
       sodipodi:arc-type="arc"
       d="M 0.81952541,1.3960531 A 0.2875672,0.22650841 0 0 1 1.0973679,1.1622121 0.2875672,0.22650841 0 0 1 1.3943413,1.380979 0.2875672,0.22650841 0 0 1 1.1167062,1.6149728 0.2875672,0.22650841 0 0 1 0.81953892,1.3963693" />
    <path
       style="fill:#1c1c1c;fill-opacity:1;stroke:#484848;stroke-width:0.01;stroke-linecap:round;stroke-linejoin:round;stroke-miterlimit:200;stroke-dasharray:none;stroke-opacity:1;paint-order:markers stroke fill"
       id="path6"
       sodipodi:type="arc"
       sodipodi:cx="1.8041886"
       sodipodi:cy="1.573741"
       sodipodi:rx="0.11817829"
       sodipodi:ry="0.13984431"
       sodipodi:start="3.1086609"
       sodipodi:end="3.1072641"
       sodipodi:open="true"
       sodipodi:arc-type="arc"
       d="M 1.6860744,1.5783454 A 0.11817829,0.13984431 0 0 1 1.8002562,1.4339741 0.11817829,0.13984431 0 0 1 1.9223001,1.5690389 0.11817829,0.13984431 0 0 1 1.8082035,1.7135045 0.11817829,0.13984431 0 0 1 1.6860799,1.5785407" />
    <path
       style="fill:none;fill-opacity:1;stroke:none;stroke-width:0.01;stroke-linecap:round;stroke-linejoin:round;stroke-miterlimit:200;stroke-dasharray:none;stroke-opacity:1;paint-order:markers stroke fill"
       d="m 1.2408721,1.1266331 c 0.00788,-0.00394 0.015757,-0.00788 0.023636,-0.011818 0.013574,-0.00679 0.02305,-0.00841 0.031514,-0.019696 0.00352,-0.0047 0.00373,-0.011605 0.00788,-0.015757 0.00985,-0.00985 0.025608,-0.01773 0.035453,-0.027575 0.00485,-0.00485 0.00418,-0.019696 0.015757,-0.019696"
       id="path7" />
    <path
       style="fill:none;fill-opacity:1;stroke:#1b1b1b;stroke-width:0.01;stroke-linecap:round;stroke-linejoin:round;stroke-miterlimit:200;stroke-dasharray:none;stroke-opacity:1;paint-order:markers stroke fill"
       d="m 1.0320905,1.1384509 c 0.00538,-0.015509 0.00394,-0.031281 0.00394,-0.047271 0,-0.00394 0.00176,-0.00829 0,-0.011818 -0.00131,-0.00263 -0.00625,-0.00149 -0.00788,-0.00394 -0.00163,-0.00244 -0.00186,-0.0058 -0.00394,-0.00788 -3.943e-4,-3.943e-4 -0.013656,0.00184 -0.00788,-0.00394 6.561e-4,-6.562e-4 0.014971,-0.00772 0.015757,-0.00788 0.00386,-7.726e-4 0.00854,0.00219 0.011818,0 0.02424,-0.01616 0.023636,-0.049951 0.023636,-0.0748463"
       id="path9" />
    <path
       style="fill:none;fill-opacity:1;stroke:#1b1b1b;stroke-width:0.01;stroke-linecap:round;stroke-linejoin:round;stroke-miterlimit:200;stroke-dasharray:none;stroke-opacity:1;paint-order:markers stroke fill"
       d="m 1.3551111,1.2014794 c 0.018383,-0.00394 0.037164,-0.00634 0.05515,-0.011818 0.017133,-0.00521 0.036775,-0.019042 0.05515,-0.023636 0.012246,-0.00306 0.030073,-0.00129 0.043332,-0.00394 0.012077,-0.00242 0.02327,-0.00788 0.035453,-0.00788"
       id="path10" />
    <path
       style="fill:none;fill-opacity:1;stroke:#1b1b1b;stroke-width:0.01;stroke-linecap:round;stroke-linejoin:round;stroke-miterlimit:200;stroke-dasharray:none;stroke-opacity:1;paint-order:markers stroke fill"
       d="m 1.3196576,1.6466176 c 0.00193,0.017428 0.014398,0.028851 0.027575,0.039393 0.00324,0.00259 0.00888,0.001 0.011818,0.00394 0.00394,0.00394 -0.00394,0.019696 0,0.023636 0.00654,0.00654 0.017307,0.013367 0.023636,0.019696 0.00804,0.00804 5.318e-4,0.038755 0.00394,0.047271 0.00492,0.012297 0.015757,0.00612 0.015757,0.019696"
       id="path12" />
    <path
       style="fill:none;fill-opacity:1;stroke:#1b1b1b;stroke-width:0.01;stroke-linecap:round;stroke-linejoin:round;stroke-miterlimit:200;stroke-dasharray:none;stroke-opacity:1;paint-order:markers stroke fill"
       d="m 1.3945039,1.5166215 c 0.039843,-0.026562 0.012487,-0.00134 0.031514,-0.039393 0.023392,-0.046784 7.408e-4,0.025351 0.023636,-0.043332 0.00521,-0.015645 0.00744,-0.061275 0.00394,-0.078786 9.049e-4,-0.00791 -0.00616,-0.012836 -0.00788,-0.019696 -0.00202,-0.00809 0,-0.019174 0,-0.027575"
       id="path13" />
    <path
       style="fill:none;fill-opacity:1;stroke:#1b1b1b;stroke-width:0.01;stroke-linecap:round;stroke-linejoin:round;stroke-miterlimit:200;stroke-dasharray:none;stroke-opacity:1;paint-order:markers stroke fill"
       d="m 0.85482302,1.5481357 c 0.0142629,0.028677 0.0407474,0.054042 0.070907,0.066968 0.002413,0.00103 0.00553,-0.00117 0.007878,0 0.001175,5.874e-4 -9.2869e-4,0.00301 0,0.00394 0.002936,0.00294 0.008496,0.00145 0.0118179,0.00394 0.010165,0.00762 0.004903,0.00884 0.0118179,0.015757"
       id="path14" />
    <path
       style="fill:none;fill-opacity:1;stroke:#1b1b1b;stroke-width:0.01;stroke-linecap:round;stroke-linejoin:round;stroke-miterlimit:200;stroke-dasharray:none;stroke-opacity:1;paint-order:markers stroke fill"
       d="m 0.77209821,1.1896615 c -0.0120979,-0.027612 -0.027607,-0.039402 -0.0551499,-0.047271 -0.00588,-0.00168 -0.0187963,0.00332 -0.0236358,-0.00394 -0.002914,-0.00437 8.6254e-4,-0.010576 0,-0.015757 -0.001053,-0.00632 -0.0129117,-0.046177 -0.007879,-0.051211 9.2869e-4,-9.287e-4 0.002847,7.276e-4 0.003939,0 0.0115446,-0.0077 0.007878,-0.014538 0.007878,-0.027575"
       id="path15" />
    <path
       style="fill:none;fill-opacity:1;stroke:#1b1b1b;stroke-width:0.01;stroke-linecap:round;stroke-linejoin:round;stroke-miterlimit:200;stroke-dasharray:none;stroke-opacity:1;paint-order:markers stroke fill"
       d="M 0.4530168,0.7051305 C 0.4451378,0.7130095 0.4365139,0.7202067 0.429381,0.7287663 0.423319,0.7360403 0.4186424,0.7443725 0.413624,0.7524021 c -0.001556,0.00249 -0.00159,0.006117 -0.003939,0.007879 -0.006644,0.004983 -0.0162076,0.004165 -0.0236357,0.007878 -0.006529,0.003264 -0.007353,0.0112924 -0.0118179,0.015757 -9.2869e-4,9.2869e-4 -0.003011,-9.2869e-4 -0.003939,0 -0.002611,0.002611 0,0.0194958 0,0.0236358 0,0.008633 0.003387,0.0247404 0,0.0315142 -0.003331,0.006662 -0.007621,0.0144317 -0.003939,0.0236358 0.004406,0.0110143 0.024905,0.024438 0.0315142,0.0354535 0.002135,0.003561 0.001003,0.008882 0.003939,0.0118179 0.002936,0.002936 0.008104,0.002082 0.0118179,0.003939 0.0235466,0.0117734 0.0434655,0.0253984 0.0590891,0.0472713 0.011467,0.0160539 0.003704,0.0266357 0.007878,0.0433321 0.003501,0.014006 0.003064,0.00306 0.0118179,0.011818 0.002077,0.00208 0.00159,0.00612 0.003939,0.00788 0.007031,0.00527 0.02072,0.00633 0.0275749,0.011818 0.0175038,0.014003 -0.001386,0.011818 0.015757,0.011818"
       id="path16" />
    <path
       style="fill:none;fill-opacity:1;stroke:#1b1b1b;stroke-width:0.01;stroke-linecap:round;stroke-linejoin:round;stroke-miterlimit:200;stroke-dasharray:none;stroke-opacity:1;paint-order:markers stroke fill"
       d="m 0.63816279,0.37029199 c 0.0859453,-0.009549 -0.0208574,0.004171 0.0787855,-0.015757 0.0355444,-0.007109 0.0865708,-0.0222353 0.11423904,0.0118179 0.0250116,0.0307834 0.0551979,0.12999614 0.10636046,0.12999614"
       id="path17" />
    <path
       style="fill:none;fill-opacity:1;stroke:#1b1b1b;stroke-width:0.01;stroke-linecap:round;stroke-linejoin:round;stroke-miterlimit:200;stroke-dasharray:none;stroke-opacity:1;paint-order:markers stroke fill"
       d="m 1.8829742,1.3866254 c 0.015757,-0.014444 0.030921,-0.029563 0.047271,-0.043332 0.031668,-0.026668 0.021046,-0.011405 0.039393,-0.023636 0.00886,-0.0059 0.0141,-0.015241 0.019696,-0.023636 0.00634,-0.00951 0.00131,0.00131 0.011818,-0.00394 0.00912,-0.00456 0.014092,-0.020454 0.023636,-0.023636 0.031514,-0.010505 -0.013131,0.013131 0.00788,-0.00788 0.00919,-0.00919 0.00788,0.00722 0.00788,-0.00394"
       id="path18" />
    <path
       style="fill:none;fill-opacity:1;stroke:#1b1b1b;stroke-width:0.01;stroke-linecap:round;stroke-linejoin:round;stroke-miterlimit:200;stroke-dasharray:none;stroke-opacity:1;paint-order:markers stroke fill"
       d="m 1.9775168,1.5048036 c 0.031671,0.00422 0.055504,-0.00817 0.078786,-0.027575 0.014696,-0.012247 0.013651,-0.00414 0.027575,-0.023636 0.00315,-0.00441 1.11e-4,-0.011929 0.00394,-0.015757 0.00208,-0.00208 0.0058,-0.00186 0.00788,-0.00394 0.00253,-0.00253 0.00928,-0.013224 0.011818,-0.015757"
       id="path19" />
    <path
       style="fill:none;fill-opacity:1;stroke:#1b1b1b;stroke-width:0.01;stroke-linecap:round;stroke-linejoin:round;stroke-miterlimit:200;stroke-dasharray:none;stroke-opacity:1;paint-order:markers stroke fill"
       d="m 1.965699,1.6426783 c 0.043293,-0.013935 0.029198,0.013441 0.035453,0.019696 0.00306,0.00306 0.016638,0.00482 0.019696,0.00788 1.578e-4,1.578e-4 0.00394,0.023318 0.00394,0.027575"
       id="path20" />
    <path
       style="fill:none;fill-opacity:1;stroke:#1b1b1b;stroke-width:0.01;stroke-linecap:round;stroke-linejoin:round;stroke-miterlimit:200;stroke-dasharray:none;stroke-opacity:1;paint-order:markers stroke fill"
       d="m 1.7569173,1.7332817 c -0.00263,0.013131 -0.00291,0.02696 -0.00788,0.039393 -0.00381,0.00952 -0.016453,0.013906 -0.019696,0.023636 -0.0031,0.00931 0.00116,0.019237 0.00394,0.027575 0.00362,0.010869 -0.00513,0.029131 0,0.039393 0.006,0.011995 0.015757,0.00461 0.015757,0.023636 0,0.014432 -0.023636,0.018514 -0.023636,0.023636"
       id="path21" />
    <path
       style="fill:none;fill-opacity:1;stroke:#1b1b1b;stroke-width:0.01;stroke-linecap:round;stroke-linejoin:round;stroke-miterlimit:200;stroke-dasharray:none;stroke-opacity:1;paint-order:markers stroke fill"
       d="m 1.737221,1.3787468 c -0.00657,0.00525 -0.012176,0.011997 -0.019696,0.015757 -0.013391,0.0067 -0.029941,0.00512 -0.043332,0.011818 -0.00843,0.00421 -0.011919,0.016919 -0.015757,0.023636 -0.00326,0.0057 -0.00974,0.00953 -0.011818,0.015757 -0.00125,0.00374 0.00176,0.00829 0,0.011818 -0.00468,0.00935 -0.00524,0.021647 -0.011818,0.031514 -0.011953,0.01793 -0.024422,0.023642 -0.019696,0.047271 0.00345,0.017271 0.018258,0.01538 0.023636,0.031514 0.00125,0.00374 -6.483e-4,0.00793 0,0.011818 0.00305,0.018288 0.00285,0.00625 0.011818,0.019696 0.0036,0.0054 -0.00394,0.010875 -0.00394,0.015757"
       id="path22" />
    <path
       style="fill:none;fill-opacity:1;stroke:#1b1b1b;stroke-width:0.01;stroke-linecap:round;stroke-linejoin:round;stroke-miterlimit:200;stroke-dasharray:none;stroke-opacity:1;paint-order:markers stroke fill"
       d="m 1.6347998,1.3551111 c -0.022283,0.00796 -0.067155,0.022427 -0.090603,0.035454 -2.937e-4,1.636e-4 -0.022236,0.058831 -0.023636,0.063028 -0.00282,0.00847 0.00409,0.023328 0,0.031514 -0.00332,0.00663 -0.00394,0.00766 -0.00394,0.015757"
       id="path23" />
    <path
       style="fill:none;fill-opacity:1;stroke:#1b1b1b;stroke-width:0.01;stroke-linecap:round;stroke-linejoin:round;stroke-miterlimit:200;stroke-dasharray:none;stroke-opacity:1;paint-order:markers stroke fill"
       d="m 1.6938889,0.8745194 c 0.00155,0.0560236 0.00354,0.11363393 0.035454,0.1615103 0.010909,0.016363 0.014503,0.006 0.023636,0.019696 0.00311,0.00466 0.00302,0.014833 0.00788,0.019696 0.00208,0.00208 0.00625,0.0015 0.00788,0.00394"
       id="path24"
       sodipodi:nodetypes="ccccc" />
    <path
       style="fill:none;fill-opacity:1;stroke:#1b1b1b;stroke-width:0.01;stroke-linecap:round;stroke-linejoin:round;stroke-miterlimit:200;stroke-dasharray:none;stroke-opacity:1;paint-order:markers stroke fill"
       d="m 1.366929,0.38604909 c 0.00919,-0.009192 0.015795,-0.0220779 0.027575,-0.0275749 0.031766,-0.0148243 0.039815,0.005929 0.059089,0.0196964 0.017661,0.0126148 0.01277,0.00432 0.031514,0.0118179 0.0061,0.002439 0.00972,0.009232 0.015757,0.0118179 0.01767,0.007573 0.012243,2.1275e-4 0.027575,0.007879 0.027204,0.0136022 -0.00522,0.003619 0.027575,0.0118179"
       id="path29" />
    <path
       style="fill:none;fill-opacity:1;stroke:#1b1b1b;stroke-width:0.01;stroke-linecap:round;stroke-linejoin:round;stroke-miterlimit:200;stroke-dasharray:none;stroke-opacity:1;paint-order:markers stroke fill"
       d="m 0.79573386,2.0956951 c 0.0122142,0.047517 0.0694102,0.1069115 0.0512106,0.1615104 -0.004917,0.014751 -0.002961,-0.00687 -0.007878,0.00788 -0.004205,0.012616 -2.884e-4,0.031946 -0.007879,0.043332 -0.00309,0.00464 -0.008728,0.00718 -0.0118179,0.011818 -0.002305,0.00345 -0.001802,0.00826 -0.003939,0.011818 -0.00191,0.00318 -0.005968,0.00469 -0.007879,0.00788 -0.004388,0.00731 -0.009735,0.023182 -0.0118179,0.031514 -0.003838,0.015351 0.010746,0.051211 -0.0118179,0.051211"
       id="path30" />
    <path
       style="fill:none;fill-opacity:1;stroke:#1b1b1b;stroke-width:0.01;stroke-linecap:round;stroke-linejoin:round;stroke-miterlimit:200;stroke-dasharray:none;stroke-opacity:1;paint-order:markers stroke fill"
       d="m 1.7214639,2.0681202 c 0.014406,0.045021 0.034541,0.093298 0.039393,0.1418139 0.00117,0.011759 -0.00107,0.023684 0,0.035454 0.00147,0.016204 0.027575,0.010705 0.027575,0.027575"
       id="path31" />
    <path
       style="fill:none;fill-opacity:1;stroke:#1b1b1b;stroke-width:0.01;stroke-linecap:round;stroke-linejoin:round;stroke-miterlimit:200;stroke-dasharray:none;stroke-opacity:1;paint-order:markers stroke fill"
       d="m 1.5796499,2.4856835 c -0.00772,0.036381 0.00366,0.073716 0,0.1102998 -7.646e-4,0.00765 -0.0092,0.00132 -0.011818,0.00394 -0.00415,0.00415 -0.00477,0.010777 -0.00788,0.015757 -0.00517,0.00827 -0.023403,0.0285 -0.027575,0.035454 -0.00741,0.012345 -0.00979,0.027455 -0.015757,0.039393 -0.00294,0.00587 -0.00856,0.010057 -0.011818,0.015756 -0.00291,0.0051 -0.0057,0.010305 -0.00788,0.015756 -4.868e-4,0.00122 9.287e-4,0.00301 0,0.00394 -0.020043,0.020042 -0.056287,0.00902 -0.066968,0.019696"
       id="path32" />
    <path
       style="fill:none;fill-opacity:1;stroke:#1b1b1b;stroke-width:0.01;stroke-linecap:round;stroke-linejoin:round;stroke-miterlimit:200;stroke-dasharray:none;stroke-opacity:1;paint-order:markers stroke fill"
       d="m 0.67755557,2.7299187 c -0.005824,0.03247 -0.0483035,0.021243 -0.0630284,0.043332 -0.004607,0.00691 -0.004506,0.016047 -0.007879,0.023635 -0.001924,0.00433 -0.006578,0.00727 -0.007878,0.011819 -0.003453,0.012086 -0.00113,0.030384 0.007878,0.039393 9.6573e-4,9.525e-4 0.0460999,0.011089 0.0512106,0.011819 0.009554,0.00138 0.0219303,-0.00241 0.0315142,0 0.0168013,0.0042 0.0292573,0.010017 0.0472713,0.011819 0.007839,7.938e-4 0.0165888,-0.00352 0.0236358,0 0.003243,0.00161 0.0196506,0.00779 0.0196964,0.00788 0.00195,0.0039 4.9742e-4,0.016253 0.003939,0.019696 0.001857,0.00185 0.005778,-0.00159 0.007879,0 0.0130403,0.00978 0.008596,0.01724 0.0275749,0.011819 0.0306049,-0.00874 -0.002463,-0.072383 0.0157573,-0.090603 0.002077,-0.00206 0.005802,-0.00185 0.007879,-0.00394 0.0111448,-0.011144 0.00361,-0.011819 0.0236358,-0.011819"
       id="path33" />
    <path
       style="fill:none;fill-opacity:1;stroke:#1b1b1b;stroke-width:0.01;stroke-linecap:round;stroke-linejoin:round;stroke-miterlimit:200;stroke-dasharray:none;stroke-opacity:1;paint-order:markers stroke fill"
       d="m 0.73270543,2.7299187 c 0.067855,-0.020878 0.0358479,-8.202e-4 0.070907,-0.039393 0.006246,-0.00687 0.0139959,-0.012367 0.0196964,-0.019696 0.0102063,-0.013123 0.011653,-0.03135 0.0236358,-0.043332"
       id="path34" />
    <path
       style="fill:none;fill-opacity:1;stroke:#1b1b1b;stroke-width:0.01;stroke-linecap:round;stroke-linejoin:round;stroke-miterlimit:200;stroke-dasharray:none;stroke-opacity:1;paint-order:markers stroke fill"
       d="m 0.86270157,2.7417366 c 0.0250055,-0.019209 0.0738994,-0.032929 0.0866641,-0.066968 0.001844,-0.00492 -6.5087e-4,-0.010546 0,-0.015756 0.002035,-0.016268 0.007879,-0.026601 0.007879,-0.043332"
       id="path35" />
    <path
       style="fill:none;fill-opacity:1;stroke:#1b1b1b;stroke-width:0.01;stroke-linecap:round;stroke-linejoin:round;stroke-miterlimit:200;stroke-dasharray:none;stroke-opacity:1;paint-order:markers stroke fill"
       d="m 0.97300131,2.0602417 c -0.0239064,0.049788 0.0713646,0.077313 0.0748463,0.1260568 6.799e-4,0.00954 -0.00542,0.018338 -0.00788,0.027575 -0.00279,0.010462 -0.00561,0.020926 -0.00788,0.031514 -0.00167,0.00781 -8.679e-4,0.016263 -0.00394,0.023636 -0.00555,0.013314 -0.02123,0.022975 -0.015757,0.039393 0.00434,0.01301 0.028323,0.0015 0.035454,0.015757 0.00863,0.017266 -0.014009,0.027137 0.027575,0.035453 0.024813,0.00496 0.025491,-0.012514 0.039393,-0.023636 0.00939,-0.00751 0.017896,-0.00152 0.027575,-0.00394 0.015059,-0.00376 0.027436,-0.00983 0.043332,-0.011818 0.00521,-6.509e-4 0.010505,0 0.015757,0"
       id="path36" />
    <path
       style="fill:none;fill-opacity:1;stroke:#1b1b1b;stroke-width:0.01;stroke-linecap:round;stroke-linejoin:round;stroke-miterlimit:200;stroke-dasharray:none;stroke-opacity:1;paint-order:markers stroke fill"
       d="m 1.1423902,1.6584354 c -0.010862,0.00138 -0.034579,0.010944 -0.043332,0.019696 -0.00899,0.00899 -0.00435,0.065727 0,0.078785 0.00413,0.012379 0.031426,0.027399 0.035453,0.035454 0.00186,0.00371 0.001,0.00888 0.00394,0.011818 0.00294,0.00294 0.00826,0.0018 0.011818,0.00394 0.010381,0.00623 0.017502,0.01692 0.027575,0.023636 0.00109,7.276e-4 0.00301,-9.287e-4 0.00394,0 0.00504,0.00504 -0.00151,0.034539 -0.00394,0.039393 -0.00901,0.018029 0.00163,-0.016716 -0.00788,0.011818 -0.00345,0.010358 0.00216,0.024678 0,0.035454 -0.00314,0.015689 -0.00788,0.030385 -0.00788,0.047271"
       id="path37" />
    <path
       style="fill:none;fill-opacity:1;stroke:#1b1b1b;stroke-width:0.01;stroke-linecap:round;stroke-linejoin:round;stroke-miterlimit:200;stroke-dasharray:none;stroke-opacity:1;paint-order:markers stroke fill"
       d="m 1.4851073,2.2256913 c 0.00657,-0.010505 0.013131,-0.021009 0.019696,-0.031514 0.00525,-0.00525 0.01144,-0.00971 0.015757,-0.015757 0.013851,-0.00172 9.367e-4,-0.011252 0.00394,-0.015757 0.0035,-0.00525 0.012825,-0.00989 0.015757,-0.015757 0.00485,-0.0097 -0.011435,0.00356 0.00394,-0.011818 0.014832,-0.014832 0.038187,-0.015154 0.05515,-0.023636 0.011818,-0.00591 -0.00788,-0.00394 0.011818,-0.011818 0.014754,0 0.00829,0.00176 0.019696,-0.00394"
       id="path38" />
    <path
       style="fill:none;fill-opacity:1;stroke:#1b1b1b;stroke-width:0.01;stroke-linecap:round;stroke-linejoin:round;stroke-miterlimit:200;stroke-dasharray:none;stroke-opacity:1;paint-order:markers stroke fill"
       d="m 1.5678321,2.292659 c 0.00525,0 0.010558,-7.435e-4 0.015757,0 0.017577,0.00251 0.03426,0.011519 0.051211,0.015757 0.025822,0.00646 0.0736,-0.013064 0.094543,0.00788"
       id="path39" />
    <path
       style="fill:#1b1b1b;fill-opacity:0.222703;stroke:none;stroke-width:0.01;stroke-linecap:round;stroke-linejoin:round;stroke-miterlimit:200;stroke-dasharray:none;stroke-opacity:1;paint-order:markers stroke fill"
       id="path40"
       sodipodi:type="arc"
       sodipodi:cx="1.387929"
       sodipodi:cy="2.4597321"
       sodipodi:rx="0.14998443"
       sodipodi:ry="0.30827567"
       sodipodi:start="3.1086609"
       sodipodi:end="3.1072641"
       sodipodi:open="true"
       sodipodi:arc-type="arc"
       d="M 1.2380259,2.4698823 A 0.14998443,0.30827567 0 0 1 1.3829383,2.1516271 0.14998443,0.30827567 0 0 1 1.5378286,2.4493667 0.14998443,0.30827567 0 0 1 1.3930244,2.7678298 0.14998443,0.30827567 0 0 1 1.2380329,2.4703126" />
    <path
       style="fill:#1b1b1b;fill-opacity:0.222703;stroke:none;stroke-width:0.01;stroke-linecap:round;stroke-linejoin:round;stroke-miterlimit:200;stroke-dasharray:none;stroke-opacity:1;paint-order:markers stroke fill"
       id="path41"
       sodipodi:type="arc"
       sodipodi:cx="0.85545999"
       sodipodi:cy="0.8098712"
       sodipodi:rx="0.15125526"
       sodipodi:ry="0.31088772"
       sodipodi:start="3.1086609"
       sodipodi:end="3.1072641"
       sodipodi:open="true"
       sodipodi:arc-type="arc"
       d="M 0.70428673,0.82010742 A 0.15125526,0.31088772 0 0 1 0.850427,0.49915563 0.15125526,0.31088772 0 0 1 1.0066297,0.79941797 0.15125526,0.31088772 0 0 1 0.86059856,1.1205795 0.15125526,0.31088772 0 0 1 0.70429384,0.82054143" />
    <path
       style="fill:#1b1b1b;fill-opacity:0.222703;stroke:none;stroke-width:0.0100038;stroke-linecap:round;stroke-linejoin:round;stroke-miterlimit:200;stroke-dasharray:none;stroke-opacity:1;paint-order:markers stroke fill"
       id="path43"
       sodipodi:type="arc"
       sodipodi:cx="1.4479387"
       sodipodi:cy="1.0960745"
       sodipodi:rx="0.32206181"
       sodipodi:ry="0.21348217"
       sodipodi:start="3.1086609"
       sodipodi:end="3.1072641"
       sodipodi:open="true"
       sodipodi:arc-type="arc"
       d="M 1.1260515,1.1031035 A 0.32206181,0.21348217 0 0 1 1.4372221,0.88271051 0.32206181,0.21348217 0 0 1 1.7698184,1.0888964 0.32206181,0.21348217 0 0 1 1.45888,1.3094334 0.32206181,0.21348217 0 0 1 1.1260666,1.1034016"
       transform="matrix(0.97233999,0.23357001,-0.27219454,0.96224224,0,0)" />
    <path
       style="fill:#2f2f2f;fill-opacity:1;stroke:#000000;stroke-width:0.01;stroke-linecap:round;stroke-linejoin:round;stroke-miterlimit:200;stroke-dasharray:none;stroke-opacity:1;paint-order:markers stroke fill"
       d="m 2.4463055,3.4889259 c 0.00613,-0.00482 0.012258,-0.00963 0.018386,-0.014451 3.284e-4,-0.00274 -5.311e-4,-0.00591 9.841e-4,-0.00821 0.00214,-0.00326 0.00687,-0.00409 0.0092,-0.00723 0.00442,-0.00596 0.00658,-0.013344 0.010671,-0.01954 0.00273,-0.00414 0.00757,-0.00684 0.00969,-0.01133 0.00143,-0.00302 0.0125,-0.043286 0.013623,-0.044168 0.00217,-0.0017 0.00604,0.00269 0.00821,9.841e-4 0.00334,-0.00262 0.00453,-0.061394 0.00377,-0.066167 -0.00387,-0.02416 -0.017741,-0.044417 -0.020862,-0.06912 -0.00181,-0.014332 0.00643,-0.016677 0.011655,-0.027749 0.00385,-0.00814 0.00414,-0.025878 -1.651e-4,-0.03333 -0.00195,-0.00338 -0.00591,-0.00552 -0.00723,-0.0092 -9.274e-4,-0.0026 0.00191,-0.00561 9.841e-4,-0.00821 -0.00412,-0.011488 -0.00794,-0.00715 -0.014943,-0.014282 -0.01564,-0.015911 -0.028345,-0.02838 -0.050409,-0.031024 -0.00458,-5.486e-4 -0.018667,-0.00552 -0.021015,0.00164 -0.00511,0.01558 6.711e-4,0.014653 -0.00344,0.028733 -0.00345,0.011813 -0.012601,0.020227 -0.016249,0.031362 -0.00856,0.026094 -0.00324,0.046674 -0.017558,0.077006 -0.00184,0.0039 -0.01815,0.037236 -0.021338,0.03908 -0.00378,0.00218 -0.00938,-6.65e-5 -0.012805,0.00262 -0.00342,0.00269 -0.00257,0.00868 -0.00558,0.011822 -0.00213,0.00223 -0.00701,5.503e-4 -0.0087,0.00312 -0.00228,0.00345 -9.841e-4,0.00821 -0.00148,0.012314 -0.0016,0.013347 0.0068,0.013374 0.013959,0.022492 0.00765,0.021318 -0.00175,0.00327 0.00723,0.0092 0.016059,0.010586 -0.00435,-8.096e-4 0.00312,0.0087 8.509e-4,0.00108 0.00295,-2.67e-4 0.0041,4.915e-4 0.00414,0.00273 0.00792,0.00608 0.01133,0.00969 0.014559,0.015417 0.024423,0.035924 0.039741,0.050563 0.00771,0.00737 0.01702,0.013306 0.022169,0.023476 0.0035,0.00692 0.010658,0.025528 0.012975,0.030701 z"
       id="path44" />
    <path
       style="fill:#2f2f2f;fill-opacity:1;stroke:#000000;stroke-width:0.01;stroke-linecap:round;stroke-linejoin:round;stroke-miterlimit:200;stroke-dasharray:none;stroke-opacity:1;paint-order:markers stroke fill"
       d="m 2.19343,2.596224 c 0,0.010958 0.0018,0.02206 0,0.032867 C 2.18504,2.679406 2.1851,2.645772 2.166041,2.683868 2.162671,2.690598 2.163931,2.699046 2.160571,2.70578 2.158261,2.7104 2.152181,2.71225 2.149613,2.716738 2.133593,2.744773 2.113735,2.8400097 2.116746,2.8701159 c 0.00268,0.026792 0.040458,0.078803 0.060255,0.0986 0.00991,0.00991 0.014663,4.18e-5 0.02191,0.00547 0.0062,0.00465 0.010481,0.011475 0.016433,0.016433 0.00506,0.00421 0.012323,0.00582 0.016433,0.010958 0.01113,0.013918 0.00176,0.017975 0.00547,0.032867 6.276e-4,0.0025 0.00466,0.00303 0.00547,0.00547 0.011832,0.035479 -0.021824,0.043822 0.032867,0.043822 0.00889,0 0.024494,0.0028 0.032867,0 0.025924,-0.00864 0.031331,-0.1248789 0.032867,-0.1478998 9.289e-4,-0.013922 -0.00628,-0.069608 0,-0.082167 0.00231,-0.00462 0.00839,-0.00647 0.010958,-0.010958 0.00994,-0.017396 0.029456,-0.056231 0.032867,-0.076689 0.0024,-0.014408 0,-0.029215 0,-0.043822 0,-0.0073 0.00257,-0.015072 0,-0.021911 C 2.381933,2.6917391 2.374013,2.6858071 2.36871,2.6783791 2.351967,2.6549381 2.334599,2.6366741 2.308455,2.6236021 2.303285,2.6210221 2.296967,2.6211021 2.292022,2.6181321 2.280335,2.6111221 2.278984,2.6040911 2.264633,2.6016991 2.241309,2.5978191 2.217346,2.6002191 2.193422,2.5962291 Z"
       id="path45" />
    <path
       style="fill:#2f2f2f;fill-opacity:1;stroke:#000000;stroke-width:0.01;stroke-linecap:round;stroke-linejoin:round;stroke-miterlimit:200;stroke-dasharray:none;stroke-opacity:1;paint-order:markers stroke fill"
       d="m 1.9388997,2.9145508 c -0.00551,0.00551 -0.011024,0.011024 -0.016536,0.016536 0,0.00276 0.00123,0.0058 0,0.00827 -0.00174,0.00349 -0.00633,0.00488 -0.00827,0.00827 -0.00368,0.00644 -0.00495,0.014033 -0.00827,0.020671 -0.00222,0.00444 -0.0067,0.00769 -0.00827,0.012402 -0.00106,0.00317 -0.00726,0.044466 -0.00827,0.045475 -0.00195,0.00195 -0.00632,-0.00195 -0.00827,0 -0.003,0.003 0.00281,0.061497 0.00413,0.066146 0.00672,0.023527 0.0229,0.04199 0.028939,0.066146 0.0035,0.014015 -0.0044,0.017324 -0.00827,0.028939 -0.00285,0.00854 -0.00103,0.026187 0.00413,0.033073 0.00234,0.00312 0.00653,0.00478 0.00827,0.00827 0.00123,0.00247 -0.00123,0.0058 0,0.00827 0.00546,0.010916 0.00873,0.00615 0.016536,0.012402 0.017422,0.013937 0.031521,0.024805 0.053743,0.024805 0.00461,0 0.019191,0.00326 0.020671,-0.00413 0.00322,-0.016077 -0.00241,-0.014469 0,-0.028939 0.00202,-0.01214 0.010104,-0.021583 0.012402,-0.033073 0.00539,-0.026927 -0.00234,-0.046728 0.00827,-0.078548 0.00136,-0.00409 0.01359,-0.039131 0.016536,-0.041341 0.00349,-0.00261 0.00932,-0.00105 0.012402,-0.00413 0.00308,-0.00308 0.00152,-0.00892 0.00413,-0.012402 0.00185,-0.00247 0.00689,-0.00138 0.00827,-0.00413 0.00185,-0.0037 0,-0.00827 0,-0.012402 0,-0.013443 -0.00834,-0.01247 -0.016536,-0.020671 -0.010128,-0.020257 0.00135,-0.00346 -0.00827,-0.00827 -0.017205,-0.0086 0.00442,2.857e-4 -0.00413,-0.00827 -9.737e-4,-9.736e-4 -0.0029,6.165e-4 -0.00413,0 -0.00444,-0.00222 -0.00859,-0.00509 -0.012402,-0.00827 -0.01629,-0.013575 -0.028524,-0.032762 -0.045475,-0.045475 -0.00853,-0.0064 -0.018482,-0.011186 -0.024805,-0.020671 -0.0043,-0.00645 -0.01362,-0.024078 -0.016536,-0.028939 z"
       id="path46" />
    <path
       style="fill:#2f2f2f;fill-opacity:1;stroke:#000000;stroke-width:0.01;stroke-linecap:round;stroke-linejoin:round;stroke-miterlimit:200;stroke-dasharray:none;stroke-opacity:1;paint-order:markers stroke fill"
       d="m 2.203483,0.66145832 c 0,0.0248047 0,0.0496094 0,0.0744141 0,0.0208854 0.00161,0.0420244 0.00827,0.0620117 0.00648,0.0194384 0.029568,0.0256429 0.041341,0.0413412 0.00302,0.004028 0.00321,0.009873 0.00827,0.0124023 0.00939,0.004693 0.018848,0.009519 0.028939,0.0124024 0.017827,0.005093 0.039641,-0.003647 0.057878,0 0.00302,6.0325e-4 0.00525,0.00353 0.00827,0.004134 0.00811,0.001622 0.016536,0 0.024805,0 0.00776,0 0.025612,-0.00373 0.033073,0 0.01012,0.00506 0.00604,0.0176519 0.024805,0.008268 0.00444,-0.002222 0.00706,-0.007582 0.00827,-0.0124023 0.00241,-0.009657 0.00241,-0.0902571 0,-0.0950846 -0.0039,-0.007806 -0.00413,-0.0108619 -0.00413,-0.0206706 0,-0.001101 -6.826e-4,-0.012061 0,-0.0124023 0.00247,-0.001233 0.0058,0.001233 0.00827,0 7.223e-4,-3.6248e-4 0.00334,-0.0112059 0.00413,-0.0124024 0.00276,-0.004134 0.011782,-0.008889 0.00827,-0.0124023 -9.737e-4,-9.7367e-4 -0.0028,3.3337e-4 -0.00413,0 -0.034582,-0.008646 -0.070421,0.003364 -0.1033528,0.0165365 -0.0027,0.001079 -0.014542,0.008268 -0.016536,0.008268 -0.00608,0 -0.00413,-0.0107879 -0.00413,-0.0124024 0,-0.0120184 0.00384,-0.0813599 0,-0.0909505 -0.00145,-0.003619 -0.00551,-0.005512 -0.00827,-0.008268 0,-0.004134 10e-4,-0.008392 0,-0.0124023 -4.727e-4,-0.001891 -0.00326,-0.002391 -0.00413,-0.004134 -0.020024,-0.0400476 -0.015038,-0.0275307 -0.053743,-0.037207 -0.00535,-0.001336 -0.011189,0.001336 -0.016536,0 -0.00356,-8.9104e-4 -0.036251,-0.007958 -0.037207,-0.004134 -0.00583,0.0233198 0.00552,0.03859 0.020671,0.0537435 1.9e-6,1.9e-6 0.01626,0.0126786 0.012402,0.0165365 -0.00191,0.00191 -0.00991,-0.001249 -0.012402,0 -0.013053,0.006526 -0.021089,0.0128204 -0.033073,0.0248047 z"
       id="path47" />
    <path
       style="fill:#1b1b1b;fill-opacity:0.222703;stroke:none;stroke-width:0.01;stroke-linecap:round;stroke-linejoin:round;stroke-miterlimit:200;stroke-dasharray:none;stroke-opacity:1;paint-order:markers stroke fill"
       d="M 2.2200195,0.6531901 2.1538737,0.59117838"
       id="path48" />
    <path
       style="fill:none;fill-opacity:1;stroke:#1b1b1b;stroke-width:0.01;stroke-linecap:round;stroke-linejoin:round;stroke-miterlimit:200;stroke-dasharray:none;stroke-opacity:1;paint-order:markers stroke fill"
       d="m 2.2174254,0.69130264 c 0.012679,-0.002861 0.025147,-0.0102253 0.038041,-0.008579 0.034773,0.004439 0.03049,0.0262823 0.039428,0.0482171 0.00819,0.0200988 0.00849,0.0104739 0.020327,0.0268258 0.00385,0.005321 0.00328,0.0129969 0.00701,0.018408 0.010892,0.0158415 0.010236,0.00672 0.019101,0.0213917 0.01573,0.0260316 -0.00635,2.7063e-4 0.016997,0.0247215"
       id="path54" />
    <path
       style="fill:none;fill-opacity:1;stroke:#1b1b1b;stroke-width:0.01;stroke-linecap:round;stroke-linejoin:round;stroke-miterlimit:200;stroke-dasharray:none;stroke-opacity:1;paint-order:markers stroke fill"
       d="m 2.2020297,2.8300777 c 0.010899,-0.015319 0.023132,-0.02977 0.0327,-0.045955 0.00912,-0.015411 0.014269,-0.038877 0.02472,-0.054673 0.00697,-0.010526 0.021311,-0.021257 0.029302,-0.032165 0.00727,-0.00994 0.011844,-0.021525 0.02083,-0.029751"
       id="path55" />
    <path
       style="fill:none;fill-opacity:1;stroke:#1b1b1b;stroke-width:0.01;stroke-linecap:round;stroke-linejoin:round;stroke-miterlimit:200;stroke-dasharray:none;stroke-opacity:1;paint-order:markers stroke fill"
       d="m 2.3632602,3.3468421 c 0.010899,-0.015319 0.023132,-0.02977 0.0327,-0.045955 0.00912,-0.015411 0.014269,-0.038877 0.02472,-0.054673 0.00697,-0.010526 0.041982,0.011816 0.049973,9.079e-4 0.00727,-0.00994 -0.00883,-0.054598 1.594e-4,-0.062824"
       id="path56"
       sodipodi:nodetypes="ccccc" />
    <path
       style="fill:none;fill-opacity:1;stroke:#1b1b1b;stroke-width:0.01;stroke-linecap:round;stroke-linejoin:round;stroke-miterlimit:200;stroke-dasharray:none;stroke-opacity:1;paint-order:markers stroke fill"
       d="m 1.9999302,3.1533659 c -0.012098,-0.027612 -0.027607,-0.039402 -0.05515,-0.047271 -0.00588,-0.00168 -0.018796,0.00332 -0.023636,-0.00394 -0.00291,-0.00437 8.626e-4,-0.010576 0,-0.015757 -0.00105,-0.00632 -0.012912,-0.046177 -0.00788,-0.051211 9.287e-4,-9.287e-4 0.00285,7.276e-4 0.00394,0 0.011545,-0.0077 0.00788,-0.014538 0.00788,-0.027575"
       id="path57" />
  </g>
</svg>
